<svg width="64" height="64" viewBox="0 0 64 64" fill="none" xmlns="http://www.w3.org/2000/svg">
<path d="M28 13.3333C21.9884 13.3333 16.2231 15.7214 11.9722 19.9722C7.72142 24.2231 5.33333 29.9884 5.33333 36C5.33333 42.0116 7.72142 47.7769 11.9722 52.0278C16.2231 56.2786 21.9884 58.6667 28 58.6667C30.9766 58.6667 33.9241 58.0804 36.6742 56.9413C39.4242 55.8022 41.923 54.1325 44.0278 52.0278C46.1325 49.923 47.8022 47.4242 48.9413 44.6742C50.0804 41.9241 50.6667 38.9766 50.6667 36C50.6667 29.9884 48.2786 24.2231 44.0278 19.9722C39.7769 15.7214 34.0116 13.3333 28 13.3333ZM36 34.6667C34.2319 34.6667 32.5362 33.9643 31.2859 32.714C30.0357 31.4638 29.3333 29.7681 29.3333 28C29.3333 26.2319 30.0357 24.5362 31.2859 23.286C32.5362 22.0357 34.2319 21.3333 36 21.3333C37.7681 21.3333 39.4638 22.0357 40.714 23.286C41.9643 24.5362 42.6667 26.2319 42.6667 28C42.6667 29.7681 41.9643 31.4638 40.714 32.714C39.4638 33.9643 37.7681 34.6667 36 34.6667ZM52 5.33333C50.2319 5.33333 48.5362 6.03571 47.2859 7.28595C46.0357 8.5362 45.3333 10.2319 45.3333 12C45.3333 13.7681 46.0357 15.4638 47.2859 16.714C48.5362 17.9643 50.2319 18.6667 52 18.6667C52.8755 18.6667 53.7424 18.4942 54.5512 18.1592C55.3601 17.8242 56.095 17.3331 56.714 16.714C57.3331 16.095 57.8242 15.3601 58.1592 14.5512C58.4942 13.7424 58.6667 12.8755 58.6667 12C58.6667 10.2319 57.9643 8.5362 56.714 7.28595C55.4638 6.03571 53.7681 5.33333 52 5.33333Z" fill="#E0E0E0"/>
</svg>
